<?xml version="1.0" encoding="utf-8"?><svg viewBox="0 0 465 115" xmlns="http://www.w3.org/2000/svg" xmlns:xlink="http://www.w3.org/1999/xlink"><style>:root>svg{display:none}:root>svg:target{display:block}</style><svg viewBox="0 0 191.71 29.53" id="Logo-Digital-Planet"><path d="M46.762 18.128c.132.012.306.024.522.036h.882c1.524 0 2.658-.384 3.402-1.152.756-.78 1.134-1.866 1.134-3.258 0-1.416-.366-2.502-1.098-3.258-.732-.756-1.866-1.134-3.402-1.134-.672 0-1.152.018-1.44.054v8.712zm8.316-4.374c0 1.08-.168 2.022-.504 2.826a5.378 5.378 0 01-1.44 1.998c-.612.528-1.356.924-2.232 1.188-.864.252-1.824.378-2.88.378-.504 0-1.074-.024-1.71-.072a10.883 10.883 0 01-1.818-.252V7.706a10.927 10.927 0 011.836-.252 31.525 31.525 0 011.728-.054c1.044 0 1.998.126 2.862.378.864.24 1.602.624 2.214 1.152.624.516 1.104 1.176 1.44 1.98.336.792.504 1.74.504 2.844zm3.197-6.228h2.267V20h-2.267V7.526zm11.807 1.71c-1.284 0-2.268.402-2.952 1.206-.672.792-1.008 1.896-1.008 3.312 0 .672.078 1.29.234 1.854.168.552.408 1.026.72 1.422.324.396.72.708 1.188.936.48.216 1.038.324 1.674.324.396 0 .738-.012 1.026-.036.288-.036.516-.078.684-.126v-4.482h2.268v5.994c-.312.12-.84.252-1.584.396-.744.144-1.602.216-2.574.216-.9 0-1.722-.144-2.466-.432a5.199 5.199 0 01-1.908-1.26c-.516-.552-.918-1.23-1.206-2.034-.288-.804-.432-1.728-.432-2.772 0-1.044.156-1.968.468-2.772.324-.804.762-1.482 1.314-2.034a5.43 5.43 0 011.944-1.278 6.524 6.524 0 012.376-.432c.576 0 1.086.042 1.53.126.456.072.846.156 1.17.252.324.096.588.198.792.306.216.108.366.186.45.234l-.684 1.854c-.36-.216-.81-.396-1.35-.54a5.879 5.879 0 00-1.674-.234zm7.175-1.71h2.268V20h-2.268V7.526zm14.67 0v1.962h-3.834V20h-2.286V9.488h-3.834V7.526h9.954zM101.638 20a52.107 52.107 0 00-.522-1.458c-.18-.48-.354-.972-.522-1.476h-5.256a54.615 54.615 0 01-.522 1.494L94.312 20h-2.358c.468-1.332.912-2.562 1.332-3.69.42-1.128.828-2.196 1.224-3.204.408-1.008.81-1.968 1.206-2.88.396-.912.804-1.812 1.224-2.7h2.142a88.343 88.343 0 012.412 5.58c.408 1.008.822 2.076 1.242 3.204a141.63 141.63 0 011.35 3.69h-2.448zM97.966 9.938c-.276.636-.594 1.41-.954 2.322-.348.912-.714 1.902-1.098 2.97h4.104a122.6 122.6 0 00-1.116-2.988 71.671 71.671 0 00-.936-2.304zm16.3 8.1V20h-7.884V7.526h2.268v10.512h5.616zM125.167 7.4c1.812 0 3.198.33 4.158.99.972.66 1.458 1.692 1.458 3.096 0 .732-.132 1.362-.396 1.89a3.263 3.263 0 01-1.116 1.278c-.492.324-1.092.564-1.8.72-.708.156-1.518.234-2.43.234h-1.134V20h-2.268V7.706a10.6 10.6 0 011.746-.234 24.273 24.273 0 011.782-.072zm.162 1.962c-.576 0-1.05.018-1.422.054v4.248h1.098c1.092 0 1.932-.15 2.52-.45.588-.312.882-.894.882-1.746 0-.408-.078-.75-.234-1.026a1.681 1.681 0 00-.648-.648 2.913 2.913 0 00-.99-.324 6.349 6.349 0 00-1.206-.108zm16.129 8.676V20h-7.884V7.526h2.268v10.512h5.616zM152.646 20a52.107 52.107 0 00-.522-1.458c-.18-.48-.354-.972-.522-1.476h-5.256a54.615 54.615 0 01-.522 1.494L145.32 20h-2.358c.468-1.332.912-2.562 1.332-3.69.42-1.128.828-2.196 1.224-3.204.408-1.008.81-1.968 1.206-2.88.396-.912.804-1.812 1.224-2.7h2.142a88.343 88.343 0 012.412 5.58c.408 1.008.822 2.076 1.242 3.204a141.63 141.63 0 011.35 3.69h-2.448zm-3.672-10.062c-.276.636-.594 1.41-.954 2.322-.348.912-.714 1.902-1.098 2.97h4.104a121.413 121.413 0 00-1.116-2.988 71.671 71.671 0 00-.936-2.304zM165.797 20a72.525 72.525 0 00-1.368-2.196 89.803 89.803 0 00-1.566-2.376 49.867 49.867 0 00-1.656-2.322 38.146 38.146 0 00-1.584-2.034V20h-2.232V7.526h1.854c.48.504.996 1.104 1.548 1.8a66.579 66.579 0 011.656 2.142 55.751 55.751 0 011.62 2.25c.528.744.996 1.44 1.404 2.088v-8.28h2.25V20h-1.926zm5.638 0V7.526h8.01v1.926h-5.742v3.078h5.112v1.89h-5.112v3.654h6.174V20h-8.442zm19.961-12.474v1.962h-3.834V20h-2.286V9.488h-3.834V7.526h9.954z"/><g clip-path="url(#aclip0)"><path d="M5.472 14.969a1.269 1.269 0 100-2.538 1.269 1.269 0 000 2.538zM22.133 14.969a1.269 1.269 0 100-2.538 1.269 1.269 0 000 2.538z"/><path d="M14 0A13.973 13.973 0 002.728 5.608H6.699a8.665 8.665 0 004.094-1.105c.396-.208.835-.32 1.283-.328a2.92 2.92 0 012.933 2.852 2.893 2.893 0 01-4.284 2.525 10.63 10.63 0 00-5.008-1.365H4.352a9.62 9.62 0 00-3.343.628 14 14 0 000 10.37 7.465 7.465 0 001.897.26h3.357a8.665 8.665 0 004.093-1.106c.396-.208.836-.32 1.283-.327a2.92 2.92 0 012.947 2.838 2.892 2.892 0 01-4.243 2.592 10.629 10.629 0 00-5.008-1.364H3.97c-.415.002-.83.034-1.241.096A14 14 0 1013.999 0zm8.187 17.18a3.383 3.383 0 01-1.61-.41 12.512 12.512 0 00-5.895-1.637h-1.61c-2.07.05-4.096.612-5.895 1.637a3.397 3.397 0 01-5.008-3.056 3.439 3.439 0 013.48-3.33 3.37 3.37 0 011.5.396 10.193 10.193 0 004.763 1.364h3.957a10.194 10.194 0 004.762-1.364 3.37 3.37 0 011.501-.396 3.439 3.439 0 013.48 3.343 3.398 3.398 0 01-3.398 3.452h-.027z"/><path d="M11.585 21.928a1.078 1.078 0 100-2.156 1.078 1.078 0 000 2.156zM12.008 8.078a1.078 1.078 0 100-2.156 1.078 1.078 0 000 2.156z"/></g><defs><clipPath id="aclip0"><path d="M0 0h28v28H0z"/></clipPath></defs></svg><svg fill="none" viewBox="0 0 21 20" id="close-button" xmlns="http://www.w3.org/2000/svg"><path fill="#E0E0E0" d="M2.368 0l17.678 17.678-1.414 1.414L.954 1.414z"/><path fill="#E0E0E0" d="M.954 18L18.632.322l1.414 1.415L2.368 19.414z"/></svg><svg fill="none" viewBox="0 0 16 13" id="correct" xmlns="http://www.w3.org/2000/svg"><path d="M2 6.648L5.908 11 14 2" stroke="#1DC04B" stroke-width="3" stroke-linecap="round" stroke-linejoin="round"/></svg><svg viewBox="0 0 11 22" id="icon-fb" xmlns="http://www.w3.org/2000/svg"><path d="M.351 11.717h2.387v9.928c0 .196.157.355.351.355h4.048a.353.353 0 00.35-.355v-9.881h2.745a.352.352 0 00.349-.314l.417-3.655a.357.357 0 00-.087-.277.35.35 0 00-.262-.119H7.488V5.11c0-.692.368-1.042 1.094-1.042h2.067A.353.353 0 0011 3.712V.357a.353.353 0 00-.351-.354H7.8A2.764 2.764 0 007.67 0C7.175 0 5.457.098 4.1 1.36 2.599 2.756 2.808 4.43 2.858 4.72V7.4H.351A.353.353 0 000 7.753v3.608c0 .196.157.355.351.355z"/></svg><svg fill="none" viewBox="0 0 40 40" id="icon-magnifier" xmlns="http://www.w3.org/2000/svg"><path d="M39.581 37.628L27.764 25.81c5.162-6.138 4.883-15.416-.907-21.206-6.139-6.139-16.114-6.139-22.253 0-6.139 6.139-6.139 16.114 0 22.253 3.07 3 7.115 4.534 11.091 4.534 3.558 0 7.186-1.256 10.046-3.627L37.559 39.58c.348.28.697.419 1.046.419.349 0 .697-.14.977-.419a1.349 1.349 0 000-1.953zM24.834 24.834c-5.023 5.022-13.254 5.022-18.277 0-5.022-5.023-5.022-13.254 0-18.277 2.512-2.511 5.86-3.767 9.138-3.767 3.28 0 6.628 1.256 9.139 3.767 5.022 5.023 5.022 13.254 0 18.277zm-.767-9.139a1.4 1.4 0 01-1.396 1.396h-5.58v5.58a1.4 1.4 0 01-1.396 1.396A1.4 1.4 0 0114.3 22.67v-5.58H8.72a1.4 1.4 0 01-1.395-1.396A1.4 1.4 0 018.72 14.3h5.58V8.72a1.4 1.4 0 011.395-1.395 1.4 1.4 0 011.396 1.395v5.58h5.58a1.4 1.4 0 011.396 1.395z" fill="#fff"/></svg><svg viewBox="0 0 28 15" id="icon-vk"><path fill-rule="evenodd" clip-rule="evenodd" d="M24.098 9.538c.929.858 1.91 1.666 2.742 2.61.368.42.716.854.983 1.341.378.693.036 1.455-.62 1.497l-4.08-.002c-1.052.083-1.891-.318-2.597-1-.564-.544-1.087-1.123-1.63-1.686a3.806 3.806 0 00-.735-.618c-.556-.342-1.04-.237-1.358.313-.324.559-.398 1.178-.43 1.801-.043.91-.334 1.148-1.298 1.19-2.062.092-4.02-.203-5.837-1.188-1.603-.868-2.846-2.093-3.928-3.48C3.204 7.613 1.591 4.644.141 1.592-.185.906.054.537.855.523 2.185.5 3.516.502 4.85.523c.54.007.899.301 1.107.785.72 1.675 1.601 3.27 2.707 4.748.295.393.595.787 1.022 1.064.473.306.834.205 1.056-.294.141-.316.203-.657.235-.996.105-1.165.12-2.329-.066-3.49-.113-.725-.544-1.194-1.308-1.332C9.212.937 9.27.8 9.459.59 9.786.226 10.095 0 10.709 0h4.61c.726.136.887.444.987 1.136l.004 4.847c-.008.268.141 1.062.65 1.239.408.126.676-.183.921-.427 1.104-1.11 1.892-2.42 2.595-3.777.313-.597.581-1.216.841-1.835.193-.46.496-.686 1.043-.676l4.436.004c.132 0 .265.002.393.022.747.12.952.425.721 1.116-.364 1.085-1.072 1.988-1.764 2.896-.74.97-1.531 1.905-2.265 2.88-.674.89-.62 1.34.217 2.113z"/></svg><svg fill="none" viewBox="0 0 12 12" id="incorrect" xmlns="http://www.w3.org/2000/svg"><path fill-rule="evenodd" clip-rule="evenodd" d="M11.543 2.668A1.556 1.556 0 009.345.465L6.003 3.799 2.667.457A1.556 1.556 0 10.464 2.655L3.8 5.998.457 9.334a1.556 1.556 0 102.198 2.203l3.343-3.336 3.336 3.342a1.556 1.556 0 002.203-2.198L8.2 6.002l3.342-3.334z" fill="#F97676"/></svg><svg preserveAspectRatio="none" viewBox="0 0 465 64" fill="none" id="long-strip" xmlns="http://www.w3.org/2000/svg"><path opacity=".37" d="M1.5 63.5C22 32.5 74 5.934 179.5 15c105.5 9.066 184 54 285-14" stroke="#E6E6E6" stroke-width="1.5" stroke-dasharray="9 4"/></svg><svg fill="none" viewBox="0 0 44 44" id="menu" xmlns="http://www.w3.org/2000/svg"><path fill="#E0E0E0" d="M10 15h24v2H10zM10 21h24v2H10zM18 27h16v2H18z"/></svg><svg fill="none" viewBox="0 0 24 14" id="open-button" xmlns="http://www.w3.org/2000/svg"><path fill="#E0E0E0" d="M0 0h24v2H0zM0 6h24v2H0zM8 12h16v2H8z"/></svg><svg fill="none" viewBox="0 0 31 31" id="order-icon" xmlns="http://www.w3.org/2000/svg"><path d="M30.412 9.538l-1.927-1.927a.887.887 0 00-1.046-.13 2.818 2.818 0 01-3.527-.392 2.823 2.823 0 01-.392-3.528.846.846 0 00-.131-1.046L21.462.588a2.05 2.05 0 00-2.875 0l-4.9 4.9 2.025 2.025-1.176 1.176-2.025-2.025L.588 18.587a2.05 2.05 0 000 2.875l1.927 1.927a.839.839 0 001.013.13c1.11-.685 2.548-.49 3.495.425a2.86 2.86 0 01.425 3.495c-.196.327-.163.752.13 1.013l1.96 1.96c.392.392.915.588 1.438.588.522 0 1.045-.196 1.437-.588l11.923-11.923-2.025-2.025 1.176-1.176 2.025 2.025 4.9-4.9a2.05 2.05 0 000-2.875zm-14.765.294l1.176-1.176 2.189 2.19-1.176 1.175-2.189-2.189zm5.488 5.488l-2.189-2.188 1.176-1.176 2.189 2.188-1.176 1.176z" fill="#fff"/></svg><svg preserveAspectRatio="none" viewBox="0 0 181 115" fill="none" id="pointer-1" xmlns="http://www.w3.org/2000/svg"><ellipse cx="176.805" cy="110.5" rx="4.195" ry="4.5" transform="rotate(-180 176.805 110.5)" fill="#C4C4C4"/><path d="M174.598 107L75 1H0" stroke="#C4C4C4" stroke-width=".5"/></svg><svg preserveAspectRatio="none" viewBox="0 0 245 98" fill="none" id="pointer-2" xmlns="http://www.w3.org/2000/svg"><ellipse cx="4.227" cy="93.904" rx="4.227" ry="4.096" transform="rotate(-180 4.227 93.904)" fill="#C4C4C4"/><path d="M245 .5H126L8.023 91.629" stroke="#C4C4C4" stroke-width=".5"/></svg><svg preserveAspectRatio="none" viewBox="0 0 409 83" fill="none" id="pointer-3" xmlns="http://www.w3.org/2000/svg"><circle cx="404.5" cy="4.5" r="4.5" transform="rotate(-180 404.5 4.5)" fill="#C4C4C4"/><path d="M401 6.5L111.893 82H0" stroke="#C4C4C4" stroke-width=".5"/></svg><svg preserveAspectRatio="none" viewBox="0 0 124 90" fill="none" id="pointer-4" xmlns="http://www.w3.org/2000/svg"><ellipse rx="4.215" ry="4.5" transform="matrix(-1 0 0 1 4.215 4.5)" fill="#C4C4C4"/><path d="M8 7l91.5 82h24" stroke="#C4C4C4" stroke-width=".5"/></svg><svg fill="none" viewBox="0 0 64 60" id="sent" xmlns="http://www.w3.org/2000/svg"><circle opacity=".1" cx="30" cy="30" r="28" stroke="#1C1C1C" stroke-width="4"/><path d="M15 27.077L29.655 44 60 9" stroke="#1DC04B" stroke-width="8" stroke-linecap="round" stroke-linejoin="round"/></svg><svg fill="none" viewBox="0 0 31 31" id="video-icon" xmlns="http://www.w3.org/2000/svg"><path d="M15.5 0C6.938 0 0 6.938 0 15.5 0 24.062 6.938 31 15.5 31 24.062 31 31 24.062 31 15.5 31 6.938 24.062 0 15.5 0zm5.314 16.829l-7.38 5.055c-1.07.739-2.547-.036-2.547-1.328V10.444c0-1.292 1.513-2.067 2.546-1.329l7.344 5.056c.96.628.96 2.03.037 2.658z" fill="#fff"/></svg></svg>